<svg width="40" height="40" viewBox="0 0 40 40" fill="none" xmlns="http://www.w3.org/2000/svg">
<rect x="0.5" y="0.5" width="39" height="39" rx="7.5" fill="white"/>
<rect x="0.5" y="0.5" width="39" height="39" rx="7.5" stroke="white"/>
<path d="M27.6516 11.75C28.3156 11.75 28.9016 12.3359 28.9016 13.0391V28C28.9016 28.7031 28.3156 29.25 27.6516 29.25H12.6125C11.9484 29.25 11.4016 28.7031 11.4016 28V13.0391C11.4016 12.3359 11.9484 11.75 12.6125 11.75H27.6516ZM16.675 26.75V18.4297H14.0969V26.75H16.675ZM15.3859 17.2578C16.2063 17.2578 16.8703 16.5938 16.8703 15.7734C16.8703 14.9531 16.2063 14.25 15.3859 14.25C14.5266 14.25 13.8625 14.9531 13.8625 15.7734C13.8625 16.5938 14.5266 17.2578 15.3859 17.2578ZM26.4016 26.75V22.1797C26.4016 19.9531 25.8938 18.1953 23.2766 18.1953C22.0266 18.1953 21.1672 18.8984 20.8156 19.5625H20.7766V18.4297H18.3156V26.75H20.8938V22.6484C20.8938 21.5547 21.0891 20.5 22.4563 20.5C23.7844 20.5 23.7844 21.75 23.7844 22.6875V26.75H26.4016Z" fill="#145DB8"/>
</svg>
