<svg width="40" height="40" viewBox="0 0 40 40" fill="none" xmlns="http://www.w3.org/2000/svg">
<rect x="0.5" y="0.5" width="39" height="39" rx="7.5" fill="white"/>
<rect x="0.5" y="0.5" width="39" height="39" rx="7.5" stroke="white"/>
<path fill-rule="evenodd" clip-rule="evenodd" d="M20.5 10.5C14.977 10.5 10.5 14.977 10.5 20.5C10.5 22.39 11.025 24.16 11.938 25.668L11.046 28.7C10.9948 28.8741 10.9914 29.0587 11.0362 29.2346C11.0811 29.4104 11.1724 29.5709 11.3008 29.6992C11.4291 29.8276 11.5896 29.9189 11.7654 29.9638C11.9413 30.0086 12.1259 30.0052 12.3 29.954L15.332 29.062C16.8907 30.0049 18.6782 30.5023 20.5 30.5C26.023 30.5 30.5 26.023 30.5 20.5C30.5 14.977 26.023 10.5 20.5 10.5ZM18.238 22.763C20.261 24.785 22.192 25.052 22.874 25.077C23.911 25.115 24.921 24.323 25.314 23.404C25.3632 23.2896 25.381 23.1641 25.3655 23.0405C25.35 22.917 25.3019 22.7998 25.226 22.701C24.678 22.001 23.937 21.498 23.213 20.998C23.0619 20.8932 22.8761 20.8512 22.6946 20.8806C22.5131 20.9101 22.3502 21.0088 22.24 21.156L21.64 22.071C21.6083 22.12 21.5591 22.1551 21.5025 22.1692C21.4459 22.1833 21.386 22.1754 21.335 22.147C20.928 21.914 20.335 21.518 19.909 21.092C19.483 20.666 19.111 20.1 18.902 19.719C18.8767 19.6705 18.8696 19.6145 18.8819 19.5611C18.8941 19.5078 18.925 19.4606 18.969 19.428L19.893 18.742C20.0252 18.6276 20.1106 18.4684 20.1328 18.2949C20.1549 18.1215 20.1123 17.946 20.013 17.802C19.565 17.146 19.043 16.312 18.286 15.759C18.1881 15.6887 18.0737 15.6448 17.9539 15.6317C17.834 15.6185 17.7128 15.6365 17.602 15.684C16.682 16.078 15.886 17.088 15.924 18.127C15.949 18.809 16.216 20.74 18.238 22.763Z" fill="#4CAF50"/>
</svg>
