<svg width="40" height="40" viewBox="0 0 40 40" fill="none" xmlns="http://www.w3.org/2000/svg">
<rect x="0.5" y="0.5" width="39" height="39" rx="7.5" fill="white"/>
<rect x="0.5" y="0.5" width="39" height="39" rx="7.5" stroke="white"/>
<path d="M30.3625 15.3828C30.8313 17.0234 30.8313 20.5391 30.8313 20.5391C30.8313 20.5391 30.8313 24.0156 30.3625 25.6953C30.1281 26.6328 29.3859 27.3359 28.4875 27.5703C26.8078 28 20.1672 28 20.1672 28C20.1672 28 13.4875 28 11.8078 27.5703C10.9094 27.3359 10.1672 26.6328 9.93281 25.6953C9.46406 24.0156 9.46406 20.5391 9.46406 20.5391C9.46406 20.5391 9.46406 17.0234 9.93281 15.3828C10.1672 14.4453 10.9094 13.7031 11.8078 13.4688C13.4875 13 20.1672 13 20.1672 13C20.1672 13 26.8078 13 28.4875 13.4688C29.3859 13.7031 30.1281 14.4453 30.3625 15.3828ZM17.9797 23.7031L23.5266 20.5391L17.9797 17.375V23.7031Z" fill="#FC4B4E"/>
</svg>
